{
    "asset" : {
        "generator" : "Khronos glTF Blender I/O v3.3.27",
        "version" : "2.0"
    },
    "extensionsUsed" : [
        "KHR_materials_specular",
        "KHR_materials_ior"
    ],
    "scene" : 0,
    "scenes" : [
        {
            "name" : "Scene",
            "nodes" : [
                0,
                1,
                2,
                3
            ]
        }
    ],
    "nodes" : [
        {
            "mesh" : 0,
            "name" : "Cylinder",
            "rotation" : [
                0.7028217315673828,
                0,
                0,
                0.7113661170005798
            ],
            "translation" : [
                -0.008415511809289455,
                0.3452697992324829,
                -0.028785735368728638
            ]
        },
        {
            "mesh" : 1,
            "name" : "erc20_type",
            "rotation" : [
                0.00033687055110931396,
                0.7071067094802856,
                -0.7071067094802856,
                0.00033689849078655243
            ],
            "scale" : [
                0.622521698474884,
                0.622521698474884,
                0.622521698474884
            ],
            "translation" : [
                -0.015783123672008514,
                0.1321108639240265,
                -0.0263536274433136
            ]
        },
        {
            "mesh" : 2,
            "name" : "erc20_nameF",
            "rotation" : [
                0.9999802112579346,
                0,
                0,
                0.006296534091234207
            ],
            "scale" : [
                -0.16031047701835632,
                -0.13747434318065643,
                -0.16035795211791992
            ],
            "translation" : [
                -0.00707655306905508,
                0.3319106698036194,
                -0.03881695866584778
            ]
        },
        {
            "mesh" : 3,
            "name" : "erc20_nameB",
            "rotation" : [
                -0.0018464818131178617,
                -0.0007866438827477396,
                -0.9999979734420776,
                0.00014415706391446292
            ],
            "scale" : [
                -0.1603109985589981,
                -0.13747432827949524,
                -0.16035793721675873
            ],
            "translation" : [
                -0.0070770299062132835,
                0.33191078901290894,
                -0.01804545521736145
            ]
        }
    ],
    "animations" : [
        {
            "channels" : [
                {
                    "sampler" : 0,
                    "target" : {
                        "node" : 1,
                        "path" : "translation"
                    }
                },
                {
                    "sampler" : 1,
                    "target" : {
                        "node" : 1,
                        "path" : "rotation"
                    }
                },
                {
                    "sampler" : 2,
                    "target" : {
                        "node" : 1,
                        "path" : "scale"
                    }
                }
            ],
            "name" : "erc20_type",
            "samplers" : [
                {
                    "input" : 14,
                    "interpolation" : "LINEAR",
                    "output" : 15
                },
                {
                    "input" : 14,
                    "interpolation" : "LINEAR",
                    "output" : 16
                },
                {
                    "input" : 14,
                    "interpolation" : "LINEAR",
                    "output" : 17
                }
            ]
        },
        {
            "channels" : [
                {
                    "sampler" : 0,
                    "target" : {
                        "node" : 2,
                        "path" : "translation"
                    }
                },
                {
                    "sampler" : 1,
                    "target" : {
                        "node" : 2,
                        "path" : "rotation"
                    }
                },
                {
                    "sampler" : 2,
                    "target" : {
                        "node" : 2,
                        "path" : "scale"
                    }
                }
            ],
            "name" : "erc20_nameF",
            "samplers" : [
                {
                    "input" : 14,
                    "interpolation" : "LINEAR",
                    "output" : 18
                },
                {
                    "input" : 14,
                    "interpolation" : "LINEAR",
                    "output" : 19
                },
                {
                    "input" : 14,
                    "interpolation" : "LINEAR",
                    "output" : 20
                }
            ]
        },
        {
            "channels" : [
                {
                    "sampler" : 0,
                    "target" : {
                        "node" : 3,
                        "path" : "translation"
                    }
                },
                {
                    "sampler" : 1,
                    "target" : {
                        "node" : 3,
                        "path" : "rotation"
                    }
                },
                {
                    "sampler" : 2,
                    "target" : {
                        "node" : 3,
                        "path" : "scale"
                    }
                }
            ],
            "name" : "erc20_nameB",
            "samplers" : [
                {
                    "input" : 14,
                    "interpolation" : "LINEAR",
                    "output" : 21
                },
                {
                    "input" : 14,
                    "interpolation" : "LINEAR",
                    "output" : 22
                },
                {
                    "input" : 14,
                    "interpolation" : "LINEAR",
                    "output" : 23
                }
            ]
        }
    ],
    "materials" : [
        {
            "doubleSided" : true,
            "extensions" : {
                "KHR_materials_specular" : {
                    "specularColorFactor" : [
                        1.1461561473330923,
                        1.1461561473330923,
                        1.1461561473330923
                    ]
                },
                "KHR_materials_ior" : {
                    "ior" : 1.4500000476837158
                }
            },
            "name" : "Material.002",
            "pbrMetallicRoughness" : {
                "baseColorFactor" : [
                    1,
                    0.5706185698509216,
                    0.138865664601326,
                    1
                ],
                "roughnessFactor" : 0.4562043845653534
            }
        },
        {
            "doubleSided" : true,
            "emissiveFactor" : [
                0.36235910654067993,
                0.36235910654067993,
                0.36235910654067993
            ],
            "name" : "NFT-faces",
            "pbrMetallicRoughness" : {
                "baseColorFactor" : [
                    0.263306200504303,
                    0.263306200504303,
                    0.263306200504303,
                    1
                ],
                "metallicFactor" : 0,
                "roughnessFactor" : 0.5
            }
        }
    ],
    "meshes" : [
        {
            "name" : "Cylinder.002",
            "primitives" : [
                {
                    "attributes" : {
                        "POSITION" : 0,
                        "NORMAL" : 1
                    },
                    "indices" : 2,
                    "material" : 0
                }
            ]
        },
        {
            "name" : "Text.005",
            "primitives" : [
                {
                    "attributes" : {
                        "POSITION" : 3,
                        "NORMAL" : 4,
                        "TEXCOORD_0" : 5
                    },
                    "indices" : 6,
                    "material" : 1
                }
            ]
        },
        {
            "name" : "Plane.006",
            "primitives" : [
                {
                    "attributes" : {
                        "POSITION" : 7,
                        "NORMAL" : 8,
                        "TEXCOORD_0" : 9
                    },
                    "indices" : 10
                }
            ]
        },
        {
            "name" : "Plane.008",
            "primitives" : [
                {
                    "attributes" : {
                        "POSITION" : 11,
                        "NORMAL" : 12,
                        "TEXCOORD_0" : 13
                    },
                    "indices" : 10
                }
            ]
        }
    ],
    "accessors" : [
        {
            "bufferView" : 0,
            "componentType" : 5126,
            "count" : 1840,
            "max" : [
                0.3434848487377167,
                0.028987877070903778,
                0.3434848189353943
            ],
            "min" : [
                -0.3434848487377167,
                -0.03113533928990364,
                -0.3434848189353943
            ],
            "type" : "VEC3"
        },
        {
            "bufferView" : 1,
            "componentType" : 5126,
            "count" : 1840,
            "type" : "VEC3"
        },
        {
            "bufferView" : 2,
            "componentType" : 5123,
            "count" : 1908,
            "type" : "SCALAR"
        },
        {
            "bufferView" : 3,
            "componentType" : 5126,
            "count" : 1799,
            "max" : [
                0.1307445615530014,
                0.013824813067913055,
                0.03056907095015049
            ],
            "min" : [
                -0.1307429075241089,
                -0.014421647414565086,
                -0.030719032511115074
            ],
            "type" : "VEC3"
        },
        {
            "bufferView" : 4,
            "componentType" : 5126,
            "count" : 1799,
            "type" : "VEC3"
        },
        {
            "bufferView" : 5,
            "componentType" : 5126,
            "count" : 1799,
            "type" : "VEC2"
        },
        {
            "bufferView" : 6,
            "componentType" : 5123,
            "count" : 2298,
            "type" : "SCALAR"
        },
        {
            "bufferView" : 7,
            "componentType" : 5126,
            "count" : 4,
            "max" : [
                0.9999998807907104,
                0.9999206066131592,
                0.0125928595662117
            ],
            "min" : [
                -0.9999998807907104,
                -0.9999206066131592,
                -0.0125928595662117
            ],
            "type" : "VEC3"
        },
        {
            "bufferView" : 8,
            "componentType" : 5126,
            "count" : 4,
            "type" : "VEC3"
        },
        {
            "bufferView" : 9,
            "componentType" : 5126,
            "count" : 4,
            "type" : "VEC2"
        },
        {
            "bufferView" : 10,
            "componentType" : 5123,
            "count" : 6,
            "type" : "SCALAR"
        },
        {
            "bufferView" : 11,
            "componentType" : 5126,
            "count" : 4,
            "max" : [
                1.0002316236495972,
                1.0003615617752075,
                0.006837833672761917
            ],
            "min" : [
                -1.0002316236495972,
                -1.000361680984497,
                -0.006837833672761917
            ],
            "type" : "VEC3"
        },
        {
            "bufferView" : 12,
            "componentType" : 5126,
            "count" : 4,
            "type" : "VEC3"
        },
        {
            "bufferView" : 13,
            "componentType" : 5126,
            "count" : 4,
            "type" : "VEC2"
        },
        {
            "bufferView" : 14,
            "componentType" : 5126,
            "count" : 251,
            "max" : [
                10.416666666666666
            ],
            "min" : [
                0
            ],
            "type" : "SCALAR"
        },
        {
            "bufferView" : 15,
            "componentType" : 5126,
            "count" : 251,
            "type" : "VEC3"
        },
        {
            "bufferView" : 16,
            "componentType" : 5126,
            "count" : 251,
            "type" : "VEC4"
        },
        {
            "bufferView" : 17,
            "componentType" : 5126,
            "count" : 251,
            "type" : "VEC3"
        },
        {
            "bufferView" : 18,
            "componentType" : 5126,
            "count" : 251,
            "type" : "VEC3"
        },
        {
            "bufferView" : 19,
            "componentType" : 5126,
            "count" : 251,
            "type" : "VEC4"
        },
        {
            "bufferView" : 20,
            "componentType" : 5126,
            "count" : 251,
            "type" : "VEC3"
        },
        {
            "bufferView" : 21,
            "componentType" : 5126,
            "count" : 251,
            "type" : "VEC3"
        },
        {
            "bufferView" : 22,
            "componentType" : 5126,
            "count" : 251,
            "type" : "VEC4"
        },
        {
            "bufferView" : 23,
            "componentType" : 5126,
            "count" : 251,
            "type" : "VEC3"
        }
    ],
    "bufferViews" : [
        {
            "buffer" : 0,
            "byteLength" : 22080,
            "byteOffset" : 0,
            "target" : 34962
        },
        {
            "buffer" : 0,
            "byteLength" : 22080,
            "byteOffset" : 22080,
            "target" : 34962
        },
        {
            "buffer" : 0,
            "byteLength" : 3816,
            "byteOffset" : 44160,
            "target" : 34963
        },
        {
            "buffer" : 0,
            "byteLength" : 21588,
            "byteOffset" : 47976,
            "target" : 34962
        },
        {
            "buffer" : 0,
            "byteLength" : 21588,
            "byteOffset" : 69564,
            "target" : 34962
        },
        {
            "buffer" : 0,
            "byteLength" : 14392,
            "byteOffset" : 91152,
            "target" : 34962
        },
        {
            "buffer" : 0,
            "byteLength" : 4596,
            "byteOffset" : 105544,
            "target" : 34963
        },
        {
            "buffer" : 0,
            "byteLength" : 48,
            "byteOffset" : 110140,
            "target" : 34962
        },
        {
            "buffer" : 0,
            "byteLength" : 48,
            "byteOffset" : 110188,
            "target" : 34962
        },
        {
            "buffer" : 0,
            "byteLength" : 32,
            "byteOffset" : 110236,
            "target" : 34962
        },
        {
            "buffer" : 0,
            "byteLength" : 12,
            "byteOffset" : 110268,
            "target" : 34963
        },
        {
            "buffer" : 0,
            "byteLength" : 48,
            "byteOffset" : 110280,
            "target" : 34962
        },
        {
            "buffer" : 0,
            "byteLength" : 48,
            "byteOffset" : 110328,
            "target" : 34962
        },
        {
            "buffer" : 0,
            "byteLength" : 32,
            "byteOffset" : 110376,
            "target" : 34962
        },
        {
            "buffer" : 0,
            "byteLength" : 1004,
            "byteOffset" : 110408
        },
        {
            "buffer" : 0,
            "byteLength" : 3012,
            "byteOffset" : 111412
        },
        {
            "buffer" : 0,
            "byteLength" : 4016,
            "byteOffset" : 114424
        },
        {
            "buffer" : 0,
            "byteLength" : 3012,
            "byteOffset" : 118440
        },
        {
            "buffer" : 0,
            "byteLength" : 3012,
            "byteOffset" : 121452
        },
        {
            "buffer" : 0,
            "byteLength" : 4016,
            "byteOffset" : 124464
        },
        {
            "buffer" : 0,
            "byteLength" : 3012,
            "byteOffset" : 128480
        },
        {
            "buffer" : 0,
            "byteLength" : 3012,
            "byteOffset" : 131492
        },
        {
            "buffer" : 0,
            "byteLength" : 4016,
            "byteOffset" : 134504
        },
        {
            "buffer" : 0,
            "byteLength" : 3012,
            "byteOffset" : 138520
        }
    ],
    "buffers" : [
        {
            "byteLength" : 141532,
            "uri" : "data:application/octet-stream;base64,"
        }
    ]
}
