{
    "asset" : {
        "generator" : "Khronos glTF Blender I/O v3.3.27",
        "version" : "2.0"
    },
    "extensionsUsed" : [
        "KHR_materials_specular",
        "KHR_materials_ior"
    ],
    "scene" : 0,
    "scenes" : [
        {
            "name" : "Scene",
            "nodes" : [
                0,
                1
            ]
        }
    ],
    "nodes" : [
        {
            "mesh" : 0,
            "name" : "Cylinder",
            "rotation" : [
                0,
                0,
                -0.7071068286895752,
                0.7071067094802856
            ],
            "translation" : [
                0.03440999984741211,
                0.7007708549499512,
                -0.0039686644449830055
            ]
        },
        {
            "mesh" : 1,
            "name" : "erc20B",
            "rotation" : [
                0.001692771795205772,
                -0.7071047425270081,
                0.7071047425270081,
                0.0016927416436374187
            ],
            "translation" : [
                0.039110660552978516,
                0.545140266418457,
                -0.01084902137517929
            ]
        }
    ],
    "animations" : [
        {
            "channels" : [
                {
                    "sampler" : 0,
                    "target" : {
                        "node" : 0,
                        "path" : "rotation"
                    }
                }
            ],
            "name" : "CylinderAction.001",
            "samplers" : [
                {
                    "input" : 7,
                    "interpolation" : "LINEAR",
                    "output" : 8
                }
            ]
        },
        {
            "channels" : [
                {
                    "sampler" : 0,
                    "target" : {
                        "node" : 1,
                        "path" : "translation"
                    }
                },
                {
                    "sampler" : 1,
                    "target" : {
                        "node" : 1,
                        "path" : "rotation"
                    }
                },
                {
                    "sampler" : 2,
                    "target" : {
                        "node" : 1,
                        "path" : "scale"
                    }
                }
            ],
            "name" : "Text.001",
            "samplers" : [
                {
                    "input" : 7,
                    "interpolation" : "LINEAR",
                    "output" : 9
                },
                {
                    "input" : 7,
                    "interpolation" : "LINEAR",
                    "output" : 10
                },
                {
                    "input" : 7,
                    "interpolation" : "LINEAR",
                    "output" : 11
                }
            ]
        }
    ],
    "materials" : [
        {
            "doubleSided" : true,
            "extensions" : {
                "KHR_materials_specular" : {
                    "specularColorFactor" : [
                        1.1461561473330923,
                        1.1461561473330923,
                        1.1461561473330923
                    ]
                },
                "KHR_materials_ior" : {
                    "ior" : 1.4500000476837158
                }
            },
            "name" : "Material.002",
            "pbrMetallicRoughness" : {
                "baseColorFactor" : [
                    1,
                    0.5706185698509216,
                    0.138865664601326,
                    1
                ],
                "roughnessFactor" : 0.4562043845653534
            }
        }
    ],
    "meshes" : [
        {
            "name" : "Cylinder.002",
            "primitives" : [
                {
                    "attributes" : {
                        "POSITION" : 0,
                        "NORMAL" : 1
                    },
                    "indices" : 2,
                    "material" : 0
                }
            ]
        },
        {
            "name" : "Text.005",
            "primitives" : [
                {
                    "attributes" : {
                        "POSITION" : 3,
                        "NORMAL" : 4,
                        "TEXCOORD_0" : 5
                    },
                    "indices" : 6
                }
            ]
        }
    ],
    "accessors" : [
        {
            "bufferView" : 0,
            "componentType" : 5126,
            "count" : 1853,
            "max" : [
                0.3434848487377167,
                0.03006160631775856,
                0.3434848189353943
            ],
            "min" : [
                -0.3434848487377167,
                -0.03006161004304886,
                -0.3434848189353943
            ],
            "type" : "VEC3"
        },
        {
            "bufferView" : 1,
            "componentType" : 5126,
            "count" : 1853,
            "type" : "VEC3"
        },
        {
            "bufferView" : 2,
            "componentType" : 5123,
            "count" : 1908,
            "type" : "SCALAR"
        },
        {
            "bufferView" : 3,
            "componentType" : 5126,
            "count" : 1799,
            "max" : [
                0.13067497313022614,
                0,
                0.030644051730632782
            ],
            "min" : [
                -0.13081368803977966,
                -0.02949134260416031,
                -0.030644051730632782
            ],
            "type" : "VEC3"
        },
        {
            "bufferView" : 4,
            "componentType" : 5126,
            "count" : 1799,
            "type" : "VEC3"
        },
        {
            "bufferView" : 5,
            "componentType" : 5126,
            "count" : 1799,
            "type" : "VEC2"
        },
        {
            "bufferView" : 6,
            "componentType" : 5123,
            "count" : 2298,
            "type" : "SCALAR"
        },
        {
            "bufferView" : 7,
            "componentType" : 5126,
            "count" : 251,
            "max" : [
                10.416666666666666
            ],
            "min" : [
                0
            ],
            "type" : "SCALAR"
        },
        {
            "bufferView" : 8,
            "componentType" : 5126,
            "count" : 251,
            "type" : "VEC4"
        },
        {
            "bufferView" : 9,
            "componentType" : 5126,
            "count" : 251,
            "type" : "VEC3"
        },
        {
            "bufferView" : 10,
            "componentType" : 5126,
            "count" : 251,
            "type" : "VEC4"
        },
        {
            "bufferView" : 11,
            "componentType" : 5126,
            "count" : 251,
            "type" : "VEC3"
        }
    ],
    "bufferViews" : [
        {
            "buffer" : 0,
            "byteLength" : 22236,
            "byteOffset" : 0,
            "target" : 34962
        },
        {
            "buffer" : 0,
            "byteLength" : 22236,
            "byteOffset" : 22236,
            "target" : 34962
        },
        {
            "buffer" : 0,
            "byteLength" : 3816,
            "byteOffset" : 44472,
            "target" : 34963
        },
        {
            "buffer" : 0,
            "byteLength" : 21588,
            "byteOffset" : 48288,
            "target" : 34962
        },
        {
            "buffer" : 0,
            "byteLength" : 21588,
            "byteOffset" : 69876,
            "target" : 34962
        },
        {
            "buffer" : 0,
            "byteLength" : 14392,
            "byteOffset" : 91464,
            "target" : 34962
        },
        {
            "buffer" : 0,
            "byteLength" : 4596,
            "byteOffset" : 105856,
            "target" : 34963
        },
        {
            "buffer" : 0,
            "byteLength" : 1004,
            "byteOffset" : 110452
        },
        {
            "buffer" : 0,
            "byteLength" : 4016,
            "byteOffset" : 111456
        },
        {
            "buffer" : 0,
            "byteLength" : 3012,
            "byteOffset" : 115472
        },
        {
            "buffer" : 0,
            "byteLength" : 4016,
            "byteOffset" : 118484
        },
        {
            "buffer" : 0,
            "byteLength" : 3012,
            "byteOffset" : 122500
        }
    ],
    "buffers" : [
        {
            "byteLength" : 125512,
            "uri" : "data:application/octet-stream;base64,"
        }
    ]
}
